<svg id="visual" viewBox="0 0 1920 1080" width="1920" height="1080" xmlns="http://www.w3.org/2000/svg" xmlns:xlink="http://www.w3.org/1999/xlink" version="1.1"><rect x="0" y="0" width="1920" height="1080" fill="#00111f"></rect><defs><linearGradient id="grad1_0" x1="43.8%" y1="0%" x2="100%" y2="100%"><stop offset="14.444444444444446%" stop-color="#15bf81" stop-opacity="1"></stop><stop offset="85.55555555555554%" stop-color="#15bf81" stop-opacity="1"></stop></linearGradient></defs><defs><linearGradient id="grad1_1" x1="43.8%" y1="0%" x2="100%" y2="100%"><stop offset="14.444444444444446%" stop-color="#15bf81" stop-opacity="1"></stop><stop offset="85.55555555555554%" stop-color="#00a585" stop-opacity="1"></stop></linearGradient></defs><defs><linearGradient id="grad1_2" x1="43.8%" y1="0%" x2="100%" y2="100%"><stop offset="14.444444444444446%" stop-color="#008b83" stop-opacity="1"></stop><stop offset="85.55555555555554%" stop-color="#00a585" stop-opacity="1"></stop></linearGradient></defs><defs><linearGradient id="grad1_3" x1="43.8%" y1="0%" x2="100%" y2="100%"><stop offset="14.444444444444446%" stop-color="#008b83" stop-opacity="1"></stop><stop offset="85.55555555555554%" stop-color="#00707a" stop-opacity="1"></stop></linearGradient></defs><defs><linearGradient id="grad1_4" x1="43.8%" y1="0%" x2="100%" y2="100%"><stop offset="14.444444444444446%" stop-color="#00576a" stop-opacity="1"></stop><stop offset="85.55555555555554%" stop-color="#00707a" stop-opacity="1"></stop></linearGradient></defs><defs><linearGradient id="grad1_5" x1="43.8%" y1="0%" x2="100%" y2="100%"><stop offset="14.444444444444446%" stop-color="#00576a" stop-opacity="1"></stop><stop offset="85.55555555555554%" stop-color="#003e54" stop-opacity="1"></stop></linearGradient></defs><defs><linearGradient id="grad1_6" x1="43.8%" y1="0%" x2="100%" y2="100%"><stop offset="14.444444444444446%" stop-color="#00273a" stop-opacity="1"></stop><stop offset="85.55555555555554%" stop-color="#003e54" stop-opacity="1"></stop></linearGradient></defs><defs><linearGradient id="grad1_7" x1="43.8%" y1="0%" x2="100%" y2="100%"><stop offset="14.444444444444446%" stop-color="#00273a" stop-opacity="1"></stop><stop offset="85.55555555555554%" stop-color="#00111f" stop-opacity="1"></stop></linearGradient></defs><defs><linearGradient id="grad2_0" x1="0%" y1="0%" x2="56.3%" y2="100%"><stop offset="14.444444444444446%" stop-color="#15bf81" stop-opacity="1"></stop><stop offset="85.55555555555554%" stop-color="#15bf81" stop-opacity="1"></stop></linearGradient></defs><defs><linearGradient id="grad2_1" x1="0%" y1="0%" x2="56.3%" y2="100%"><stop offset="14.444444444444446%" stop-color="#00a585" stop-opacity="1"></stop><stop offset="85.55555555555554%" stop-color="#15bf81" stop-opacity="1"></stop></linearGradient></defs><defs><linearGradient id="grad2_2" x1="0%" y1="0%" x2="56.3%" y2="100%"><stop offset="14.444444444444446%" stop-color="#00a585" stop-opacity="1"></stop><stop offset="85.55555555555554%" stop-color="#008b83" stop-opacity="1"></stop></linearGradient></defs><defs><linearGradient id="grad2_3" x1="0%" y1="0%" x2="56.3%" y2="100%"><stop offset="14.444444444444446%" stop-color="#00707a" stop-opacity="1"></stop><stop offset="85.55555555555554%" stop-color="#008b83" stop-opacity="1"></stop></linearGradient></defs><defs><linearGradient id="grad2_4" x1="0%" y1="0%" x2="56.3%" y2="100%"><stop offset="14.444444444444446%" stop-color="#00707a" stop-opacity="1"></stop><stop offset="85.55555555555554%" stop-color="#00576a" stop-opacity="1"></stop></linearGradient></defs><defs><linearGradient id="grad2_5" x1="0%" y1="0%" x2="56.3%" y2="100%"><stop offset="14.444444444444446%" stop-color="#003e54" stop-opacity="1"></stop><stop offset="85.55555555555554%" stop-color="#00576a" stop-opacity="1"></stop></linearGradient></defs><defs><linearGradient id="grad2_6" x1="0%" y1="0%" x2="56.3%" y2="100%"><stop offset="14.444444444444446%" stop-color="#003e54" stop-opacity="1"></stop><stop offset="85.55555555555554%" stop-color="#00273a" stop-opacity="1"></stop></linearGradient></defs><defs><linearGradient id="grad2_7" x1="0%" y1="0%" x2="56.3%" y2="100%"><stop offset="14.444444444444446%" stop-color="#00111f" stop-opacity="1"></stop><stop offset="85.55555555555554%" stop-color="#00273a" stop-opacity="1"></stop></linearGradient></defs><g transform="translate(1920, 0)"><path d="M0 972C-103.4 952.2 -206.8 932.4 -286.5 881.6C-366.1 830.8 -422 749.1 -508.4 699.8C-594.9 650.5 -711.8 633.8 -786.4 571.3C-860.9 508.9 -893 400.7 -916.8 297.9C-940.7 195.1 -956.3 97.5 -972 0L0 0Z" fill="#001c2c"></path><path d="M0 850.5C-90.5 833.2 -181 815.9 -250.7 771.4C-320.3 727 -369.3 655.4 -444.9 612.3C-520.5 569.2 -622.9 554.6 -688.1 499.9C-753.3 445.3 -781.3 350.6 -802.2 260.7C-823.1 170.7 -836.8 85.3 -850.5 0L0 0Z" fill="#003247"></path><path d="M0 729C-77.6 714.2 -155.1 699.3 -214.8 661.2C-274.6 623.1 -316.5 561.8 -381.3 524.8C-446.2 487.9 -533.9 475.3 -589.8 428.5C-645.7 381.7 -669.7 300.5 -687.6 223.4C-705.5 146.3 -717.3 73.1 -729 0L0 0Z" fill="#004a5f"></path><path d="M0 607.5C-64.6 595.1 -129.3 582.8 -179 551C-228.8 519.3 -263.8 468.2 -317.8 437.4C-371.8 406.6 -444.9 396.1 -491.5 357.1C-538.1 318 -558.1 250.5 -573 186.2C-587.9 121.9 -597.7 61 -607.5 0L0 0Z" fill="#006373"></path><path d="M0 486C-51.7 476.1 -103.4 466.2 -143.2 440.8C-183.1 415.4 -211 374.5 -254.2 349.9C-297.4 325.3 -355.9 316.9 -393.2 285.7C-430.4 254.4 -446.5 200.4 -458.4 148.9C-470.3 97.5 -478.2 48.8 -486 0L0 0Z" fill="#007e7f"></path><path d="M0 364.5C-38.8 357.1 -77.6 349.7 -107.4 330.6C-137.3 311.6 -158.3 280.9 -190.7 262.4C-223.1 243.9 -266.9 237.7 -294.9 214.2C-322.8 190.8 -334.9 150.3 -343.8 111.7C-352.8 73.1 -358.6 36.6 -364.5 0L0 0Z" fill="#009885"></path><path d="M0 243C-25.9 238.1 -51.7 233.1 -71.6 220.4C-91.5 207.7 -105.5 187.3 -127.1 174.9C-148.7 162.6 -178 158.4 -196.6 142.8C-215.2 127.2 -223.2 100.2 -229.2 74.5C-235.2 48.8 -239.1 24.4 -243 0L0 0Z" fill="#00b284"></path><path d="M0 121.5C-12.9 119 -25.9 116.6 -35.8 110.2C-45.8 103.9 -52.8 93.6 -63.6 87.5C-74.4 81.3 -89 79.2 -98.3 71.4C-107.6 63.6 -111.6 50.1 -114.6 37.2C-117.6 24.4 -119.5 12.2 -121.5 0L0 0Z" fill="#15bf81"></path></g><g transform="translate(0, 1080)"><path d="M0 -972C86 -913.7 172.1 -855.4 271 -834.1C369.9 -812.7 481.7 -828.3 571.3 -786.4C661 -744.4 728.4 -644.9 749.1 -544.3C769.9 -443.7 743.9 -342.1 773.2 -251.2C802.6 -160.3 887.3 -80.2 972 0L0 0Z" fill="#001c2c"></path><path d="M0 -850.5C75.3 -799.5 150.6 -748.5 237.1 -729.8C323.7 -711.1 421.5 -724.8 499.9 -688.1C578.3 -651.3 637.4 -564.3 655.5 -476.3C673.6 -388.3 650.9 -299.4 676.6 -219.8C702.2 -140.3 776.4 -70.2 850.5 0L0 0Z" fill="#003247"></path><path d="M0 -729C64.5 -685.3 129.1 -641.6 203.3 -625.6C277.4 -609.5 361.3 -621.2 428.5 -589.8C495.7 -558.3 546.3 -483.6 561.9 -408.2C577.4 -332.8 557.9 -256.6 579.9 -188.4C601.9 -120.3 665.5 -60.1 729 0L0 0Z" fill="#004a5f"></path><path d="M0 -607.5C53.8 -571.1 107.6 -534.6 169.4 -521.3C231.2 -508 301.1 -517.7 357.1 -491.5C413.1 -465.2 455.3 -403 468.2 -340.2C481.2 -277.3 464.9 -213.8 483.3 -157C501.6 -100.2 554.5 -50.1 607.5 0L0 0Z" fill="#006373"></path><path d="M0 -486C43 -456.9 86 -427.7 135.5 -417C185 -406.4 240.9 -414.2 285.7 -393.2C330.5 -372.2 364.2 -322.4 374.6 -272.1C384.9 -221.9 371.9 -171.1 386.6 -125.6C401.3 -80.2 443.6 -40.1 486 0L0 0Z" fill="#007e7f"></path><path d="M0 -364.5C32.3 -342.6 64.5 -320.8 101.6 -312.8C138.7 -304.8 180.6 -310.6 214.2 -294.9C247.9 -279.1 273.2 -241.8 280.9 -204.1C288.7 -166.4 278.9 -128.3 290 -94.2C301 -60.1 332.7 -30.1 364.5 0L0 0Z" fill="#009885"></path><path d="M0 -243C21.5 -228.4 43 -213.9 67.8 -208.5C92.5 -203.2 120.4 -207.1 142.8 -196.6C165.2 -186.1 182.1 -161.2 187.3 -136.1C192.5 -110.9 186 -85.5 193.3 -62.8C200.6 -40.1 221.8 -20 243 0L0 0Z" fill="#00b284"></path><path d="M0 -121.5C10.8 -114.2 21.5 -106.9 33.9 -104.3C46.2 -101.6 60.2 -103.5 71.4 -98.3C82.6 -93 91.1 -80.6 93.6 -68C96.2 -55.5 93 -42.8 96.7 -31.4C100.3 -20 110.9 -10 121.5 0L0 0Z" fill="#15bf81"></path></g></svg>