<svg id="visual" viewBox="0 0 1920 1080" width="1920" height="1080" xmlns="http://www.w3.org/2000/svg" xmlns:xlink="http://www.w3.org/1999/xlink" version="1.1"><rect x="0" y="0" width="1920" height="1080" fill="#e9faff"></rect><defs><linearGradient id="grad1_0" x1="43.8%" y1="0%" x2="100%" y2="100%"><stop offset="14.444444444444446%" stop-color="#15bf81" stop-opacity="1"></stop><stop offset="85.55555555555554%" stop-color="#15bf81" stop-opacity="1"></stop></linearGradient></defs><defs><linearGradient id="grad1_1" x1="43.8%" y1="0%" x2="100%" y2="100%"><stop offset="14.444444444444446%" stop-color="#15bf81" stop-opacity="1"></stop><stop offset="85.55555555555554%" stop-color="#2bc99f" stop-opacity="1"></stop></linearGradient></defs><defs><linearGradient id="grad1_2" x1="43.8%" y1="0%" x2="100%" y2="100%"><stop offset="14.444444444444446%" stop-color="#48d3b9" stop-opacity="1"></stop><stop offset="85.55555555555554%" stop-color="#2bc99f" stop-opacity="1"></stop></linearGradient></defs><defs><linearGradient id="grad1_3" x1="43.8%" y1="0%" x2="100%" y2="100%"><stop offset="14.444444444444446%" stop-color="#48d3b9" stop-opacity="1"></stop><stop offset="85.55555555555554%" stop-color="#68dbd0" stop-opacity="1"></stop></linearGradient></defs><defs><linearGradient id="grad1_4" x1="43.8%" y1="0%" x2="100%" y2="100%"><stop offset="14.444444444444446%" stop-color="#89e3e2" stop-opacity="1"></stop><stop offset="85.55555555555554%" stop-color="#68dbd0" stop-opacity="1"></stop></linearGradient></defs><defs><linearGradient id="grad1_5" x1="43.8%" y1="0%" x2="100%" y2="100%"><stop offset="14.444444444444446%" stop-color="#89e3e2" stop-opacity="1"></stop><stop offset="85.55555555555554%" stop-color="#aaebf0" stop-opacity="1"></stop></linearGradient></defs><defs><linearGradient id="grad1_6" x1="43.8%" y1="0%" x2="100%" y2="100%"><stop offset="14.444444444444446%" stop-color="#cbf2f9" stop-opacity="1"></stop><stop offset="85.55555555555554%" stop-color="#aaebf0" stop-opacity="1"></stop></linearGradient></defs><defs><linearGradient id="grad1_7" x1="43.8%" y1="0%" x2="100%" y2="100%"><stop offset="14.444444444444446%" stop-color="#cbf2f9" stop-opacity="1"></stop><stop offset="85.55555555555554%" stop-color="#e9faff" stop-opacity="1"></stop></linearGradient></defs><defs><linearGradient id="grad2_0" x1="0%" y1="0%" x2="56.3%" y2="100%"><stop offset="14.444444444444446%" stop-color="#15bf81" stop-opacity="1"></stop><stop offset="85.55555555555554%" stop-color="#15bf81" stop-opacity="1"></stop></linearGradient></defs><defs><linearGradient id="grad2_1" x1="0%" y1="0%" x2="56.3%" y2="100%"><stop offset="14.444444444444446%" stop-color="#2bc99f" stop-opacity="1"></stop><stop offset="85.55555555555554%" stop-color="#15bf81" stop-opacity="1"></stop></linearGradient></defs><defs><linearGradient id="grad2_2" x1="0%" y1="0%" x2="56.3%" y2="100%"><stop offset="14.444444444444446%" stop-color="#2bc99f" stop-opacity="1"></stop><stop offset="85.55555555555554%" stop-color="#48d3b9" stop-opacity="1"></stop></linearGradient></defs><defs><linearGradient id="grad2_3" x1="0%" y1="0%" x2="56.3%" y2="100%"><stop offset="14.444444444444446%" stop-color="#68dbd0" stop-opacity="1"></stop><stop offset="85.55555555555554%" stop-color="#48d3b9" stop-opacity="1"></stop></linearGradient></defs><defs><linearGradient id="grad2_4" x1="0%" y1="0%" x2="56.3%" y2="100%"><stop offset="14.444444444444446%" stop-color="#68dbd0" stop-opacity="1"></stop><stop offset="85.55555555555554%" stop-color="#89e3e2" stop-opacity="1"></stop></linearGradient></defs><defs><linearGradient id="grad2_5" x1="0%" y1="0%" x2="56.3%" y2="100%"><stop offset="14.444444444444446%" stop-color="#aaebf0" stop-opacity="1"></stop><stop offset="85.55555555555554%" stop-color="#89e3e2" stop-opacity="1"></stop></linearGradient></defs><defs><linearGradient id="grad2_6" x1="0%" y1="0%" x2="56.3%" y2="100%"><stop offset="14.444444444444446%" stop-color="#aaebf0" stop-opacity="1"></stop><stop offset="85.55555555555554%" stop-color="#cbf2f9" stop-opacity="1"></stop></linearGradient></defs><defs><linearGradient id="grad2_7" x1="0%" y1="0%" x2="56.3%" y2="100%"><stop offset="14.444444444444446%" stop-color="#e9faff" stop-opacity="1"></stop><stop offset="85.55555555555554%" stop-color="#cbf2f9" stop-opacity="1"></stop></linearGradient></defs><g transform="translate(1920, 0)"><path d="M0 972C-94.5 938.5 -189 904.9 -281.8 867.4C-374.6 829.8 -465.7 788.3 -524.3 721.6C-582.9 655 -609 563.3 -680.4 494.3C-751.7 425.3 -868.3 379 -924.4 300.4C-980.6 221.8 -976.3 110.9 -972 0L0 0Z" fill="#daf6fd"></path><path d="M0 850.5C-82.7 821.1 -165.4 791.8 -246.6 758.9C-327.8 726.1 -407.5 689.7 -458.8 631.4C-510 573.1 -532.9 492.9 -595.3 432.5C-657.8 372.2 -759.8 331.6 -808.9 262.8C-858 194 -854.2 97 -850.5 0L0 0Z" fill="#bbeff5"></path><path d="M0 729C-70.9 703.8 -141.8 678.7 -211.4 650.5C-281 622.4 -349.3 591.2 -393.2 541.2C-437.2 491.3 -456.8 422.5 -510.3 370.7C-563.8 319 -651.2 284.2 -693.3 225.3C-735.4 166.3 -732.2 83.2 -729 0L0 0Z" fill="#9ae7e9"></path><path d="M0 607.5C-59.1 586.5 -118.1 565.6 -176.1 542.1C-234.1 518.6 -291.1 492.7 -327.7 451C-364.3 409.4 -380.6 352.1 -425.2 309C-469.8 265.8 -542.7 236.9 -577.8 187.7C-612.9 138.6 -610.2 69.3 -607.5 0L0 0Z" fill="#79e0d9"></path><path d="M0 486C-47.3 469.2 -94.5 452.5 -140.9 433.7C-187.3 414.9 -232.8 394.1 -262.2 360.8C-291.5 327.5 -304.5 281.7 -340.2 247.2C-375.9 212.7 -434.1 189.5 -462.2 150.2C-490.3 110.9 -488.1 55.4 -486 0L0 0Z" fill="#58d7c5"></path><path d="M0 364.5C-35.4 351.9 -70.9 339.3 -105.7 325.3C-140.5 311.2 -174.6 295.6 -196.6 270.6C-218.6 245.6 -228.4 211.3 -255.1 185.4C-281.9 159.5 -325.6 142.1 -346.7 112.6C-367.7 83.2 -366.1 41.6 -364.5 0L0 0Z" fill="#39ceac"></path><path d="M0 243C-23.6 234.6 -47.3 226.2 -70.5 216.8C-93.7 207.5 -116.4 197.1 -131.1 180.4C-145.7 163.8 -152.3 140.8 -170.1 123.6C-187.9 106.3 -217.1 94.7 -231.1 75.1C-245.1 55.4 -244.1 27.7 -243 0L0 0Z" fill="#1ec490"></path><path d="M0 121.5C-11.8 117.3 -23.6 113.1 -35.2 108.4C-46.8 103.7 -58.2 98.5 -65.5 90.2C-72.9 81.9 -76.1 70.4 -85 61.8C-94 53.2 -108.5 47.4 -115.6 37.5C-122.6 27.7 -122 13.9 -121.5 0L0 0Z" fill="#15bf81"></path></g><g transform="translate(0, 1080)"><path d="M0 -972C108.8 -967.3 217.5 -962.6 294.2 -905.4C370.8 -848.2 415.4 -738.6 493.2 -678.8C570.9 -619 682 -609 762.9 -554.3C843.8 -499.6 894.6 -400.2 924.4 -300.4C954.3 -200.5 963.1 -100.3 972 0L0 0Z" fill="#daf6fd"></path><path d="M0 -850.5C95.2 -846.4 190.3 -842.3 257.4 -792.2C324.5 -742.2 363.4 -646.3 431.5 -593.9C499.6 -541.6 596.7 -532.8 667.5 -485C738.3 -437.1 782.8 -350.2 808.9 -262.8C835 -175.5 842.7 -87.7 850.5 0L0 0Z" fill="#bbeff5"></path><path d="M0 -729C81.6 -725.5 163.2 -721.9 220.6 -679.1C278.1 -636.2 311.5 -553.9 369.9 -509.1C428.2 -464.2 511.5 -456.7 572.2 -415.7C632.9 -374.7 670.9 -300.1 693.3 -225.3C715.7 -150.4 722.3 -75.2 729 0L0 0Z" fill="#9ae7e9"></path><path d="M0 -607.5C68 -604.6 136 -601.6 183.9 -565.9C231.8 -530.1 259.6 -461.6 308.2 -424.2C356.8 -386.8 426.2 -380.6 476.8 -346.4C527.4 -312.2 559.1 -250.1 577.8 -187.7C596.4 -125.3 602 -62.7 607.5 0L0 0Z" fill="#79e0d9"></path><path d="M0 -486C54.4 -483.6 108.8 -481.3 147.1 -452.7C185.4 -424.1 207.7 -369.3 246.6 -339.4C285.5 -309.5 341 -304.5 381.5 -277.1C421.9 -249.8 447.3 -200.1 462.2 -150.2C477.1 -100.3 481.6 -50.1 486 0L0 0Z" fill="#58d7c5"></path><path d="M0 -364.5C40.8 -362.7 81.6 -361 110.3 -339.5C139.1 -318.1 155.8 -277 184.9 -254.5C214.1 -232.1 255.7 -228.4 286.1 -207.9C316.4 -187.3 335.5 -150.1 346.7 -112.6C357.8 -75.2 361.2 -37.6 364.5 0L0 0Z" fill="#39ceac"></path><path d="M0 -243C27.2 -241.8 54.4 -240.6 73.5 -226.4C92.7 -212.1 103.8 -184.6 123.3 -169.7C142.7 -154.7 170.5 -152.2 190.7 -138.6C211 -124.9 223.6 -100 231.1 -75.1C238.6 -50.1 240.8 -25.1 243 0L0 0Z" fill="#1ec490"></path><path d="M0 -121.5C13.6 -120.9 27.2 -120.3 36.8 -113.2C46.4 -106 51.9 -92.3 61.6 -84.8C71.4 -77.4 85.2 -76.1 95.4 -69.3C105.5 -62.4 111.8 -50 115.6 -37.5C119.3 -25.1 120.4 -12.5 121.5 0L0 0Z" fill="#15bf81"></path></g></svg>